<svg id="svg" version="1.1" xmlns="http://www.w3.org/2000/svg" xmlns:xlink="http://www.w3.org/1999/xlink" width="400" height="360" viewBox="0, 0, 400,360"><g id="svgg"><path id="path0" d="M48.531 4.288 C 44.153 4.585,44.481 3.602,44.360 16.759 L 44.255 28.083 24.738 28.088 C 13.072 28.092,5.003 28.231,4.680 28.435 C 3.999 28.866,3.654 74.003,4.323 75.252 C 4.698 75.953,5.115 75.968,24.476 75.968 L 44.247 75.968 44.356 90.639 C 44.477 106.970,44.423 106.617,46.901 107.369 C 48.591 107.881,106.989 108.072,107.495 107.567 C 107.640 107.421,107.875 106.287,108.016 105.046 C 108.251 102.975,108.276 102.925,108.322 104.432 C 108.417 107.624,109.395 107.971,118.362 107.995 L 124.212 108.011 124.212 111.539 C 124.212 113.803,124.367 115.222,124.644 115.500 C 124.922 115.777,126.341 115.932,128.605 115.932 L 132.133 115.932 132.145 120.522 C 132.174 131.668,132.065 131.547,142.444 132.003 L 147.894 132.242 148.043 135.650 C 148.230 139.924,148.366 140.054,152.669 140.054 L 155.786 140.054 156.040 149.693 C 156.398 163.262,156.386 163.230,161.307 163.659 L 164.176 163.909 164.176 176.104 L 164.176 188.299 161.386 188.304 C 156.089 188.313,156.372 187.628,156.047 201.222 L 155.787 212.061 152.670 212.061 C 147.951 212.061,148.190 211.628,147.975 220.582 L 147.795 228.083 144.384 228.263 C 139.712 228.509,140.066 227.133,140.059 245.072 L 140.054 259.902 138.524 260.106 C 137.682 260.219,136.107 260.350,135.022 260.399 C 131.946 260.535,132.145 258.555,132.139 289.156 L 132.133 316.026 128.670 316.177 C 124.332 316.367,124.212 316.491,124.212 320.827 L 124.212 323.965 120.629 324.089 C 116.229 324.241,116.237 324.233,116.016 328.459 L 115.839 331.851 112.398 332.077 C 107.827 332.377,108.191 331.326,108.191 344.226 C 108.191 357.184,107.773 356.062,112.601 356.070 L 115.932 356.076 115.932 358.056 L 115.932 360.036 140.054 360.036 L 164.176 360.036 164.176 358.056 L 164.176 356.076 167.541 356.076 C 172.450 356.076,172.097 357.055,172.097 343.409 L 172.097 332.060 175.225 331.839 C 180.120 331.494,179.815 332.313,179.956 319.162 L 180.074 308.191 183.196 308.179 C 188.192 308.161,187.741 309.762,187.860 291.614 L 187.961 276.148 190.056 276.148 C 194.646 276.148,195.531 275.379,195.770 271.183 L 195.955 267.950 199.156 267.797 C 203.343 267.597,204.140 266.678,204.140 262.052 L 204.140 259.946 208.101 259.946 L 212.061 259.946 212.061 263.474 C 212.061 267.900,212.028 267.867,216.398 267.867 L 219.870 267.867 220.085 274.871 C 220.360 283.848,220.215 283.582,225.042 283.955 L 227.794 284.167 228.021 293.749 C 228.336 307.090,228.317 307.037,233.031 307.641 L 236.004 308.023 236.184 323.216 C 236.396 341.107,235.964 339.573,240.856 339.807 L 244.104 339.962 244.104 347.587 C 244.104 356.653,243.806 356.076,248.497 356.076 L 252.025 356.076 252.025 358.056 L 252.025 360.036 275.968 360.036 L 299.910 360.036 299.910 358.056 L 299.910 356.076 303.652 356.076 C 306.732 356.076,307.432 355.975,307.612 355.506 C 308.015 354.456,307.860 332.734,307.448 332.479 C 307.238 332.349,305.455 332.154,303.488 332.046 L 299.910 331.848 299.910 328.313 C 299.910 324.031,299.912 324.032,295.253 324.032 L 291.989 324.032 291.989 320.638 C 291.989 316.190,291.910 316.112,287.469 316.112 L 284.080 316.112 283.984 284.801 C 283.873 248.432,284.420 252.333,279.396 252.092 L 276.148 251.937 276.148 241.156 C 276.148 227.756,276.331 228.281,271.647 228.263 C 267.643 228.247,267.969 229.159,267.790 217.462 C 267.591 204.499,267.761 204.903,262.252 204.316 L 260.057 204.083 259.823 197.868 C 259.488 189.007,259.348 188.749,254.693 188.397 L 252.025 188.195 252.025 176.186 L 252.025 164.176 253.915 164.171 C 259.386 164.155,259.734 163.618,259.888 154.954 L 260.011 148.072 262.949 147.879 C 267.443 147.582,267.860 147.110,267.865 142.311 C 267.867 139.774,267.680 139.912,271.647 139.534 C 274.567 139.255,275.295 138.432,275.631 135.025 C 275.926 132.032,276.019 131.939,279.028 131.616 C 282.677 131.225,283.692 130.051,283.712 126.193 C 283.722 124.163,283.908 124.020,287.090 123.582 C 290.661 123.090,291.243 122.574,291.492 119.682 C 291.832 115.717,291.513 116.016,295.559 115.875 C 299.915 115.724,299.703 115.936,299.854 111.587 L 299.977 108.021 335.557 107.926 C 355.126 107.874,371.272 107.696,371.437 107.531 C 371.602 107.366,371.783 100.197,371.838 91.599 L 371.939 75.968 385.970 75.968 L 400.000 75.968 400.000 52.025 L 400.000 28.083 385.959 28.083 L 371.917 28.083 371.912 16.652 C 371.909 10.079,371.761 4.991,371.565 4.680 C 371.209 4.117,313.400 3.617,309.721 4.145 L 308.191 4.365 308.191 16.224 L 308.191 28.083 208.101 28.083 L 108.011 28.083 108.005 16.652 C 108.002 10.080,107.855 4.991,107.658 4.680 C 107.302 4.117,56.085 3.777,48.531 4.288 M180.018 79.928 L 180.018 83.888 176.058 83.888 L 172.097 83.888 172.097 80.717 C 172.097 77.399,171.783 76.525,170.477 76.220 C 170.081 76.127,172.066 76.032,174.887 76.009 L 180.018 75.968 180.018 79.928 M249.864 76.321 C 245.289 76.689,244.493 77.368,244.439 80.942 C 244.404 83.307,243.807 84.633,243.761 82.448 C 243.663 77.777,242.811 76.756,238.675 76.358 C 236.341 76.133,237.633 76.067,244.284 76.070 C 250.169 76.072,251.949 76.152,249.864 76.321 " stroke="none" fill="#fcfcfc" fill-rule="evenodd"></path></g></svg>