<svg xmlns="http://www.w3.org/2000/svg" version="1.1" xmlns:xlink="http://www.w3.org/1999/xlink" xmlns:svgjs="http://svgjs.dev/svgjs" width="1000" height="295" viewBox="0 0 1000 295"><g transform="matrix(1,0,0,1,-0.6060606060606233,-0.11242755109557834)"><svg viewBox="0 0 396 117" data-background-color="#4e73df" preserveAspectRatio="xMidYMid meet" height="295" width="1000" xmlns="http://www.w3.org/2000/svg" xmlns:xlink="http://www.w3.org/1999/xlink"><g id="tight-bounds" transform="matrix(1,0,0,1,0.2400000000000091,0.0445899100955387)"><svg viewBox="0 0 395.52 116.91060915490057" height="116.91060915490057" width="395.52"><g><svg viewBox="0 0 611.818562302356 180.84567357161188" height="116.91060915490057" width="395.52"><g transform="matrix(1,0,0,1,216.29856230235606,52.878901007979955)"><svg viewBox="0 0 395.52 75.08787155565197" height="75.08787155565197" width="395.52"><g id="textblocktransform"><svg viewBox="0 0 395.52 75.08787155565197" height="75.08787155565197" width="395.52" id="textblock"><g><svg viewBox="0 0 395.52 75.08787155565197" height="75.08787155565197" width="395.52"><g transform="matrix(1,0,0,1,0,0)"><svg width="395.52" viewBox="1.899999976158142 -43.349998474121094 230.4300079345703 43.75" height="75.08787155565197" data-palette-color="#ffffff"><g class="undefined-text-0" data-fill-palette-color="primary" id="text-0"><path d="M19.65 0L1.9 0 1.9-42.95 19.1-42.95 19.1-34.65 10.65-34.65 10.65-26.3 18.75-26.3 18.75-18.2 10.65-18.2 10.65-8.35 19.65-8.35 19.65 0ZM30.25 0L22.5 0 22.5-42.95 35.6-42.95 39.2-16.75 42.8-42.95 56-42.95 56 0 48.15 0 48.15-30.95 43.2 0 35.5 0 30.25-30.95 30.25 0ZM70.05 0.4Q64.85 0.4 62.15-2.78 59.45-5.95 59.45-11.7L59.45-11.7 59.45-32.15Q59.45-37.7 62.15-40.53 64.85-43.35 70.05-43.35L70.05-43.35Q75.25-43.35 77.95-40.53 80.65-37.7 80.65-32.15L80.65-32.15 80.65-11.7Q80.65-5.9 77.95-2.75 75.25 0.4 70.05 0.4L70.05 0.4ZM70.05-7.5Q71.2-7.5 71.6-8.5 72-9.5 72-11.3L72-11.3 72-32.3Q72-33.7 71.62-34.58 71.25-35.45 70.1-35.45L70.1-35.45Q67.95-35.45 67.95-32.2L67.95-32.2 67.95-11.25Q67.95-9.4 68.4-8.45 68.85-7.5 70.05-7.5L70.05-7.5ZM96.39 0L87.79 0 87.79-34.7 82.69-34.7 82.69-42.95 101.49-42.95 101.49-34.7 96.39-34.7 96.39 0ZM111.79 0L103.49 0 103.49-42.95 111.79-42.95 111.79 0ZM125.24 0.4Q120.54 0.4 117.71-2.55 114.89-5.5 114.89-10.65L114.89-10.65 114.89-30.45Q114.89-36.85 117.44-40.1 119.99-43.35 125.44-43.35L125.44-43.35Q130.19-43.35 133.09-40.75 135.99-38.15 135.99-33.25L135.99-33.25 135.99-25.85 127.44-25.85 127.44-32.2Q127.44-34.05 126.99-34.75 126.54-35.45 125.44-35.45L125.44-35.45Q124.29-35.45 123.86-34.65 123.44-33.85 123.44-32.3L123.44-32.3 123.44-10.75Q123.44-9.05 123.94-8.28 124.44-7.5 125.44-7.5L125.44-7.5Q127.44-7.5 127.44-10.75L127.44-10.75 127.44-18.5 136.09-18.5 136.09-10.4Q136.09 0.4 125.24 0.4L125.24 0.4ZM149.19 0.4Q143.99 0.4 141.29-2.78 138.59-5.95 138.59-11.7L138.59-11.7 138.59-32.15Q138.59-37.7 141.29-40.53 143.99-43.35 149.19-43.35L149.19-43.35Q154.39-43.35 157.09-40.53 159.79-37.7 159.79-32.15L159.79-32.15 159.79-11.7Q159.79-5.9 157.09-2.75 154.39 0.4 149.19 0.4L149.19 0.4ZM149.19-7.5Q150.34-7.5 150.74-8.5 151.14-9.5 151.14-11.3L151.14-11.3 151.14-32.3Q151.14-33.7 150.76-34.58 150.39-35.45 149.24-35.45L149.24-35.45Q147.09-35.45 147.09-32.2L147.09-32.2 147.09-11.25Q147.09-9.4 147.54-8.45 147.99-7.5 149.19-7.5L149.19-7.5ZM170.43 0L162.08 0 166.23-42.95 180.78-42.95 184.88 0 176.73 0 176.13-6.95 170.93-6.95 170.43 0ZM173.18-35.65L171.58-13.8 175.48-13.8 173.58-35.65 173.18-35.65ZM197.48 0.4Q192.78 0.4 189.96-2.55 187.13-5.5 187.13-10.65L187.13-10.65 187.13-30.45Q187.13-36.85 189.68-40.1 192.23-43.35 197.68-43.35L197.68-43.35Q202.43-43.35 205.33-40.75 208.23-38.15 208.23-33.25L208.23-33.25 208.23-25.85 199.68-25.85 199.68-32.2Q199.68-34.05 199.23-34.75 198.78-35.45 197.68-35.45L197.68-35.45Q196.53-35.45 196.11-34.65 195.68-33.85 195.68-32.3L195.68-32.3 195.68-10.75Q195.68-9.05 196.18-8.28 196.68-7.5 197.68-7.5L197.68-7.5Q199.68-7.5 199.68-10.75L199.68-10.75 199.68-18.5 208.33-18.5 208.33-10.4Q208.33 0.4 197.48 0.4L197.48 0.4ZM219.73 0L211.18 0 211.18-42.95 219.73-42.95 219.73-27.6 223.78-27.6 223.78-42.95 232.33-42.95 232.33 0 223.78 0 223.78-19.5 219.73-19.5 219.73 0Z" fill="#ffffff" data-fill-palette-color="primary"></path></g></svg></g></svg></g></svg></g></svg></g><g><svg viewBox="0 0 180.84567357161188 180.84567357161188" height="180.84567357161188" width="180.84567357161188"><g><svg></svg></g><g id="icon-0"><svg viewBox="0 0 180.84567357161188 180.84567357161188" height="180.84567357161188" width="180.84567357161188"><g><path d="M0 90.423c0-49.939 40.484-90.423 90.423-90.423 49.939 0 90.423 40.484 90.423 90.423 0 49.939-40.484 90.423-90.423 90.423-49.939 0-90.423-40.484-90.423-90.423zM90.423 174.074c46.199 0 83.651-37.452 83.651-83.651 0-46.199-37.452-83.651-83.651-83.652-46.199 0-83.651 37.452-83.652 83.652 0 46.199 37.452 83.651 83.652 83.651z" data-fill-palette-color="accent" fill="#ffffff" stroke="transparent"></path></g><g transform="matrix(1,0,0,1,39.90868025963683,39.9143641344955)"><svg viewBox="0 0 101.02831305233822 101.01694530262088" height="101.01694530262088" width="101.02831305233822"><g><svg xmlns="http://www.w3.org/2000/svg" xmlns:xlink="http://www.w3.org/1999/xlink" version="1.1" x="0" y="0" viewBox="1.9932498931884766 1.9997501373291016 60.00700378417969 60.00025177001953" style="enable-background:new 0 0 64 64;" xml:space="preserve" height="101.01694530262088" width="101.02831305233822" class="icon-s-0" data-fill-palette-color="accent" id="s-0"><rect x="6.052" y="4.172" transform="matrix(0.7122 -0.702 0.702 0.7122 -2.8845 6.9642)" width="1.999" height="5.656" fill="#ffffff" data-fill-palette-color="accent"></rect><path d="M61.707 12.293l-10-10c-0.391-0.391-1.023-0.391-1.414 0L46 6.586l-2.293-2.293c-0.391-0.391-1.023-0.391-1.414 0L37 9.586l-2.293-2.293c-0.391-0.391-1.023-0.391-1.414 0l-7 7c-0.391 0.391-0.391 1.023 0 1.414L31.586 21 21 31.586l-5.293-5.293c-0.391-0.391-1.023-0.391-1.414 0l-7 7c-0.391 0.391-0.391 1.023 0 1.414L9.586 37l-5.293 5.293c-0.391 0.391-0.391 1.023 0 1.414L6.586 46l-4.293 4.293c-0.391 0.391-0.391 1.023 0 1.414l10 10C12.488 61.902 12.744 62 13 62s0.512-0.098 0.707-0.293L18 57.414l2.293 2.293C20.488 59.902 20.744 60 21 60s0.512-0.098 0.707-0.293L27 54.414l2.293 2.293C29.488 56.902 29.744 57 30 57s0.512-0.098 0.707-0.293l7-7c0.391-0.391 0.391-1.023 0-1.414L32.414 43 43 32.414l5.293 5.293c0.391 0.391 1.023 0.391 1.414 0l7-7c0.391-0.391 0.391-1.023 0-1.414L54.414 27l5.293-5.293c0.391-0.391 0.391-1.023 0-1.414L57.414 18l4.293-4.293C62.098 13.316 62.098 12.684 61.707 12.293zM13 59.586L4.414 51 8 47.414 16.586 56 13 59.586zM21 57.586l-2.293-2.293-10-10L6.414 43 11 38.414 25.586 53 21 57.586zM35.586 49L30 54.586l-2.293-2.293-16-16L9.414 34 15 28.414l5.293 5.293 10 10L35.586 49zM31 41.586L22.414 33 33 22.414 41.586 31 31 41.586zM49 35.586l-5.293-5.293-10-10L28.414 15 34 9.414l2.293 2.293 16 16L54.586 30 49 35.586zM53 25.586L38.414 11 43 6.414l2.293 2.293 10 10L57.586 21 53 25.586zM56 16.586L47.414 8 51 4.414 59.586 13 56 16.586z" fill="#ffffff" data-fill-palette-color="accent"></path><rect x="3.5" y="11.482" transform="matrix(0.0073 -1 1 0.0073 -9.5143 18.3792)" width="2" height="5" fill="#ffffff" data-fill-palette-color="accent"></rect><rect x="12.569" y="3.559" transform="matrix(0.0073 -1 1 0.0073 10.4 19.5946)" width="5" height="2" fill="#ffffff" data-fill-palette-color="accent"></rect><rect x="55.994" y="54.172" transform="matrix(0.7076 -0.7066 0.7066 0.7076 -23.6117 56.9372)" width="2" height="5.657" fill="#ffffff" data-fill-palette-color="accent"></rect><rect x="48.994" y="56.996" width="2" height="5" fill="#ffffff" data-fill-palette-color="accent"></rect><rect x="57" y="48.002" width="5" height="2" fill="#ffffff" data-fill-palette-color="accent"></rect></svg></g></svg></g></svg></g></svg></g></svg></g><defs></defs></svg><rect width="395.52" height="116.91060915490057" fill="none" stroke="none" visibility="hidden"></rect></g></svg></g></svg>