<svg width="499" height="423" viewBox="0 0 499 423" fill="none" xmlns="http://www.w3.org/2000/svg">
<path d="M142.038 85.475L125.521 78.6737L127.471 46.5H151.849L172.4 60.2009L165.617 79.5803L142.038 85.475Z" stroke="black"/>
<path d="M77.4349 79.5967L73.5548 58.2565L92.1343 47.5H116.515L117.489 78.6622L99.9696 85.4753L77.4349 79.5967Z" stroke="black"/>
<path d="M134.542 198.751L126.479 206.814L125.5 150.991L125.5 150.988L124.5 109.004L125.472 84.7171L137.6 89.382L141.502 101.088L142.5 135.007V170.913L137.529 184.832L137.518 184.863L137.511 184.895L134.542 198.751Z" stroke="black"/>
<path d="M147.5 100.989L147.499 100.928L147.482 100.868L144.612 90.345L164.616 84.6297L167.485 98.9728L162.523 114.851L162.507 114.902L162.502 114.955L160.521 136.751L148.478 146.941L147.5 100.989Z" stroke="black"/>
<path d="M95.5 99V147.793L83.4749 135.768L81.4961 119.938L81.4927 119.911L81.4864 119.884L76.5118 98.9907L79.3886 84.6065L99.3206 89.3522L95.5358 98.8143L95.5 98.9037V99Z" stroke="black"/>
<path d="M55.5845 105.713L44.1832 118.064L41.5273 110.982L50.4382 81.2795L67.7297 65.9092L70.4674 75.9473L55.5845 105.713Z" stroke="black"/>
<path d="M151.239 41.5611L151.145 41.5093L151.037 41.5014L124.5 39.5357V26.118L135.956 3.20617L142.538 19.1904L142.58 19.2933L142.662 19.3686L154.662 30.3686L154.753 30.4515L154.871 30.4831L169.554 34.3986L172.356 53.0793L151.239 41.5611Z" stroke="black"/>
<path d="M89.1581 30.4743L89.2701 30.437L89.3536 30.3536L101.354 18.3536L101.401 18.3062L101.434 18.2481L108.961 5.07662L119.491 27.095L118.536 39.5175L92.9808 40.5004L92.8545 40.5052L92.7456 40.5695L71.6594 53.0296L74.4465 35.3782L89.1581 30.4743Z" stroke="black"/>
<path d="M177.492 49.0894L177.508 48.9986L177.491 48.9079L174.648 33.7431L185.73 37.437L193.513 45.2199L194.496 60.9585L191.694 73.1006L175.544 59.8006L177.492 49.0894Z" stroke="black"/>
<path d="M60.1919 35.5H69.3492L65.5169 49.8712L65.4804 50.008L65.5211 50.1437L68.4256 59.8253L52.3056 73.1006L49.5034 60.9576L50.4871 44.2343L60.1919 35.5Z" stroke="black"/>
<path d="M151.553 188.776L151.523 188.836L151.51 188.902L146.518 213.859L133.272 247.921L129.518 214.135L139.407 200.291L139.458 200.218L139.482 200.133L147.342 171.641L158.295 175.292L151.553 188.776Z" stroke="black"/>
<path d="M93.4672 194.822L85.6529 174.309L96.6665 170.638L101.52 187.141L101.523 187.15L101.526 187.158L106.526 202.158L106.552 202.238L106.604 202.305L116.466 215.126L109.893 248.931L103.478 227.854L103.462 227.801L103.434 227.752L99.4815 220.835L97.495 206.929L97.4886 206.885L97.4743 206.842L93.4743 194.842L93.471 194.832L93.4672 194.822Z" stroke="black"/>
<path d="M72.4959 237.936L72.4959 237.936L72.495 237.929L69.5041 216.993L72.4874 191.138L79.0553 177.064L84.5343 186.196L90.5 209.064V256.926L83.8139 278.894L76.4795 268.809L72.4959 237.936Z" stroke="black"/>
<path d="M95.4779 261.147L95.5018 261.069L95.4999 260.988L94.5567 221.375L100.531 234.178L108.479 261.003L104.519 274.863L104.519 274.863L104.516 274.875L97.6024 301.541L89.435 302.449L87.5095 287.044L95.4779 261.147Z" stroke="black"/>
<path d="M86.5097 305.098L86.5096 305.098L86.5119 305.108L88.4882 314.002L85.5958 327.5H73.2831L67.5 317.862V305.188L74.374 297.332L82.7429 288.033L84.512 295.11L86.5097 305.098Z" stroke="black"/>
<path d="M175.507 337.049L180.084 321.487L187.539 339.194L187.539 339.194L187.542 339.2L194.494 355.09L191.501 403.969L191.498 404.024L191.506 404.078L194.415 422.5H183.456L175.507 337.049Z" stroke="black"/>
<path d="M160.35 332.572L170.532 334.423L177.229 418.618L161.487 377.874L157.5 348.966V342.073L160.35 332.572Z" stroke="black"/>
<path d="M85.5058 365.924L85.5 365.962V366V376.874L78.5598 389.763L78.5365 389.806L78.5221 389.853L74.5343 402.813L66.6422 418.598L67.4984 404.042L69.4969 386.055L69.4971 386.055L69.4983 386.042L70.4983 374.042L70.4983 374.042L70.4987 374.036L71.4975 360.053L73.495 346.071L73.4973 346.055L73.4985 346.038L74.4657 333.466L86.5511 332.536L87.5 342.025V352.962L85.5058 365.924Z" stroke="black"/>
<path d="M61.4287 330.257L61.4522 330.218L61.4682 330.176L63.9723 323.498L68.4926 337.059L67.5023 347.952L67.5021 347.955L60.5377 420.583L51.6123 422.368L54.4932 405.082L54.5025 405.026L54.4991 404.97L51.5039 355.051L55.465 340.197L61.4287 330.257Z" stroke="black"/>
<path d="M15.4407 161.236L15.4641 161.192L15.4785 161.145L25.4455 128.254L35.8311 116.924L39.5358 126.186L39.7034 126.605L40.1374 126.481L45.9063 124.832L10.643 182.625L1.23249 187.758L15.4407 161.236Z" stroke="black"/>
<path d="M63.5 256.023L66.0761 228.545L71.504 271.063L71.5189 271.18L71.584 271.277L79.3769 282.967L65.3887 299.753L63.5 278.977V256.023Z" stroke="black"/>
<path d="M154.523 313.977L161.241 288.063L176.5 306.182V316.882L170.704 328.474L159.363 327.528L154.523 313.977Z" stroke="black"/>
<path d="M172.4 271.3L172.487 271.184L172.498 271.04L176.197 224.809L180.5 248.046V287.943L177.739 299.906L163.637 282.984L172.4 271.3Z" stroke="black"/>
<path d="M155.489 203.105L158.477 189.159L164.018 177.154L171.509 192.136L173.497 217.986L166.519 269.824L160.152 279.829L153.498 258.917L152.501 217.047L155.489 203.105Z" stroke="black"/>
<path d="M136.521 260.026L148.568 225.737L149.5 263.012L149.502 263.081L149.522 263.146L156.487 286.031L153.601 302.385L146.414 300.588L136.521 260.026Z" stroke="black"/>
<path d="M118.5 150.988L118.5 150.991L117.521 205.814L109.443 197.736L100.5 167.927V136.007L101.497 102.11L107.371 88.4033L118.527 84.6847L119.5 109.004L118.5 150.988Z" stroke="black"/>
<path d="M203.938 124.496L204.345 124.547L204.474 124.158L207.186 116.022L219.547 131.235L228.519 163.135L228.536 163.198L228.57 163.255L243.802 188.959L233.345 184.602L196.954 123.623L203.938 124.496Z" stroke="black"/>
<path d="M184.556 109.23L184.572 109.261L184.593 109.291L189.393 116.01L186.025 121.061L170.5 94.863V82.055L184.556 109.23Z" stroke="black"/>
<path d="M209.427 163.741L209.406 163.706L209.38 163.675L197.428 149.731L190.5 133.895V122.739L231.318 187.854L226.157 191.295L209.427 163.741Z" stroke="black"/>
<path d="M187.41 105.707L172.529 77.9294L175.304 65.9045L192.565 80.2883L202.469 112.971L199.843 119.096L187.41 105.707Z" stroke="black"/>
<path d="M32.6119 165.685L32.5913 165.71L32.5742 165.738L16.9388 191.145L12.6125 185.954L51.6209 121.59L52.4923 132.92L45.5656 149.742L32.6119 165.685Z" stroke="black"/>
<path d="M56.3264 121.41L55.5139 114.098L72.5 82.0131V92.8682L56.3264 121.41Z" stroke="black"/>
<path d="M369.429 0.5H375.487L374.5 38.9872L374.5 38.9976L374.5 39.0081L375.477 99.5664L354.459 73.7722L347.486 44.8827L347.453 44.7459L347.354 44.6464L337.879 35.1723L356.194 27.4608L356.313 27.4106L356.393 27.3089L367.393 13.3089L367.474 13.2057L367.494 13.076L369.429 0.5Z" fill="#AB6868" stroke="black"/>
<path d="M406.786 26.4519L425.108 35.1305L415.666 43.6284L415.549 43.7334L415.513 43.8864L408.539 73.7738L387.547 99.5366L389.5 39.0161L389.5 38.9952L389.499 38.9744L387.526 0.5H394.571L396.506 13.076L396.525 13.203L396.604 13.3049L406.604 26.3049L406.677 26.4003L406.786 26.4519Z" fill="#AB6868" stroke="black"/>
<path d="M305.52 53.2002L318.26 41.4403L332.316 36.7552L327.544 57.7485L320.676 64.6172L307.419 74.0863L305.52 53.2002Z" stroke="black"/>
<path d="M434.477 54.8138L431.625 36.7507L447.704 42.4257L457.482 54.16L455.583 74.1064L440.363 63.6425L434.477 54.8138Z" stroke="black"/>
<path d="M349.513 76.1136L349.541 76.2333L349.621 76.3265L374.5 105.186V115.636L344.343 125.364L331.496 78.9159L330.505 64.055L337.244 40.9507L342.546 46.2526L349.513 76.1136Z" fill="#AB6868" stroke="black"/>
<path d="M413.373 77.333L413.458 77.2378L413.487 77.1136L420.459 47.2326L425.771 41.0357L432.496 65.0533L431.504 80.914L418.663 125.366L388.5 115.636V105.191L413.373 77.333Z" fill="#AB6868" stroke="black"/>
<path d="M314.577 98.733L314.539 98.7937L314.519 98.8626L303.055 138.987L298.512 118.995L306.448 80.3019L326.5 66.9343V79.8553L314.577 98.733Z" stroke="black"/>
<path d="M465.485 120.984L459.997 140.189L447.48 96.8612L447.46 96.7903L447.42 96.7284L436.511 79.8701L437.434 67.8784L456.556 80.3075L465.485 120.984Z" stroke="black"/>
<path d="M435.5 110.862V87.6514L444.538 101.209L452.213 129.991L444.36 125.628L435.5 110.862Z" stroke="black"/>
<path d="M373.502 143.958L373.497 144.012L373.504 144.066L379.251 187.168L347.478 144.804L345.551 130.348L375.439 120.706L373.502 143.958Z" stroke="black"/>
<path d="M415.522 144.804L383.763 187.149L389.495 146.069L389.503 146.016L389.499 145.962L387.556 120.705L417.449 130.348L415.522 144.804Z" stroke="black"/>
<path d="M482.51 170.098L482.525 170.174L482.562 170.242L497.721 197.718L490.37 193.634L471.439 158.761L471.427 158.738L471.411 158.715L462.542 145.905L467.185 128.262L477.527 145.185L482.51 170.098Z" stroke="black"/>
<path d="M478.462 192.808L478.446 192.77L478.425 192.736L450.466 147.803L446.734 132.873L454.638 136.386L485.462 195.052L482.923 203.516L478.462 192.808Z" stroke="black"/>
<path d="M280.441 169.235L280.474 169.174L280.489 169.106L285.472 146.183L295.849 128.259L300.458 143.928L292.574 156.738L292.567 156.75L292.56 156.762L272.63 193.634L265.239 197.74L280.441 169.235Z" stroke="black"/>
<path d="M285.574 190.738L285.558 190.764L285.546 190.79L280.009 202.788L276.557 195.022L308.364 136.377L315.309 132.904L312.527 146.814L285.574 190.738Z" stroke="black"/>
<path d="M334.502 227.952L335.489 204.286L368.711 183.766L379.475 218.993L374.608 233.595L338.365 244.37L334.502 227.952Z" stroke="black"/>
<path d="M387.433 232.615L384.514 218.019L394.297 182.799L426.511 204.275L427.498 228.948L423.645 244.359L387.433 232.615Z" stroke="black"/>
<path d="M361.553 244.21L369.167 238.5H376.562L378.498 253.017L377.506 267.888L370.155 286.265L361.553 244.21Z" stroke="black"/>
<path d="M384.504 253L386.428 237.607L394.786 239.465L402.439 245.204L392.891 286.259L386.489 268.881L384.504 253Z" stroke="black"/>
<path d="M332.115 238.163L336.52 253.141L336.705 253.769L337.262 253.426L349.362 245.98L346.505 266.932L346.502 266.952L346.501 266.971L344.508 301.842L333.44 319.367L332.5 293.981L332.498 293.934L332.487 293.888L329.498 280.932L328.502 258.034L332.115 238.163Z" stroke="black"/>
<path d="M427.48 252.141L431.917 237.054L436.496 259.031L434.505 282.923L431.513 295.888L431.502 295.933L431.5 295.98L430.569 319.258L420.492 301.851L418.499 269.969L418.498 269.945L418.494 269.921L414.654 245.92L426.763 252.44L427.306 252.733L427.48 252.141Z" stroke="black"/>
<path d="M351.498 267.055L355.106 246.306L367.488 292.021L358.881 338.882L349.504 307.938L351.498 267.055Z" stroke="black"/>
<path d="M396.512 293.019L408.879 246.407L412.502 269.052L414.496 308.936L405.122 338.935L396.512 293.019Z" stroke="black"/>
<path d="M343.207 339.085L337.548 323.049L344.869 310.237L351.431 330.862L343.207 339.085Z" stroke="black"/>
<path d="M420.776 339.132L412.586 331.852L420.089 311.219L426.455 323.042L420.776 339.132Z" stroke="black"/>
<path d="M331.478 342.148L331.491 342.106L331.496 342.062L333.256 327.986L338.5 341.096V350.941L333.514 371.884L333.506 371.918L333.502 371.952L330.516 402.808L324.14 411.005L320.506 401.919L322.495 371.091L331.478 342.148Z" stroke="black"/>
<path d="M342.472 353.175L347.421 343.276L351.87 337.938L355.498 346.101L354.502 396.877L344.012 417.858L335.508 399.905L337.495 373.08L342.472 353.175Z" stroke="black"/>
<path d="M409.498 396.872L408.502 345.113L412.085 337.947L420.536 349.215L425.508 371.09L429.482 399.903L420.013 416.947L409.498 396.872Z" stroke="black"/>
<path d="M429.891 327.909L433.511 345.103L433.516 345.128L433.524 345.152L441.505 370.093L443.492 401.885L438.947 410.066L434.481 403.813L430.496 370.94L430.493 370.915L430.488 370.892L424.518 344.027L429.891 327.909Z" stroke="black"/>
</svg>
